<svg xmlns="http://www.w3.org/2000/svg" viewBox="0 0 36 36" fill="none">
  <circle cx="18" cy="18" r="17" stroke="#065F46" stroke-width="2" fill="#ECFDF5"/>
  <path d="M18 6C14.5 6 11.5 8.5 10.5 12C8 12.5 6 14.8 6 17.5C6 20.8 8.7 23.5 12 23.5H25C27.8 23.5 30 21.3 30 18.5C30 15.8 27.5 13.5 24.8 13.5C24.5 9.4 21.6 6 18 6Z" fill="#065F46" opacity="0.15"/>
  <path d="M18 8C15.2 8 12.8 10 12 12.5C9.8 12.8 8 14.7 8 17C8 19.5 10 21.5 12.5 21.5H25C27.2 21.5 29 19.7 29 17.5C29 15.4 27.2 13.5 25 13.5C24.8 10.5 22.7 8 20 8" stroke="#065F46" stroke-width="1.5" fill="none"/>
  <path d="M13 18L16 21L23 14" stroke="#D97706" stroke-width="2" stroke-linecap="round" stroke-linejoin="round"/>
</svg>
